<svg width="381" height="381" viewBox="0 0 381 381" fill="none" xmlns="http://www.w3.org/2000/svg">
<path d="M232.293 0C240.717 0 246.71 2.54 250.274 7.62C253.838 12.7 256.106 15.9173 257.078 17.272C268.417 17.272 277.489 20.6587 284.292 27.432C291.096 33.8667 295.145 41.9947 296.441 51.816C305.189 51.816 314.746 50.6307 325.114 48.26C335.481 45.5507 342.284 42.8413 345.524 40.132C348.116 37.7613 350.87 37.084 353.786 38.1C357.026 39.116 358.645 42.3333 358.645 47.752C358.645 54.864 355.568 62.484 349.412 70.612C343.58 78.4013 340.665 82.296 340.665 82.296C340.665 82.296 344.714 82.9733 352.814 84.328C360.913 85.6827 364.963 88.2227 364.963 91.948C364.963 97.3667 359.455 102.785 348.44 108.204C337.749 113.623 329.325 117.348 323.17 119.38C316.366 121.412 310.534 125.307 305.675 131.064C301.139 136.483 298.871 144.78 298.871 155.956C298.871 163.068 303.083 169.841 311.506 176.276C320.254 182.711 329.649 190.331 339.693 199.136C350.06 207.603 359.617 217.763 368.365 229.616C376.788 241.808 381 257.217 381 275.844C381 286.343 378.732 297.688 374.196 309.88C369.337 322.072 361.885 333.587 351.842 344.424C341.798 354.923 329.163 363.728 313.936 370.84C298.385 377.613 279.756 381 258.05 381H172.033C151.946 381 131.536 378.46 110.801 373.38C90.3903 367.961 71.9235 359.664 55.4005 348.488C39.2015 337.312 25.9184 322.919 15.551 305.308C5.18367 288.036 0 267.039 0 242.316V173.228C0 168.487 1.6199 164.423 4.85969 161.036C8.09949 157.649 12.1492 155.956 17.0089 155.956C21.5446 155.956 25.4324 157.649 28.6722 161.036C31.912 164.423 33.5319 168.487 33.5319 173.228C33.5319 178.985 37.5816 186.267 45.6811 195.072C54.1046 203.539 66.5778 207.772 83.1008 207.772C91.8482 207.772 102.702 207.603 115.661 207.264C128.944 206.587 141.741 205.232 154.052 203.2C166.364 201.168 177.055 198.289 186.126 194.564C194.874 190.839 199.247 185.759 199.247 179.324C199.247 167.471 190.824 156.803 173.977 147.32C157.454 137.837 149.193 117.517 149.193 86.36C149.193 48.4293 161.18 24.5533 185.154 14.732C209.453 4.91067 225.166 0 232.293 0Z" fill="white"/>
</svg>
